<mxfile host="65bd71144e">
    <diagram name="Page-1" id="cAy3DT7-cOmM6pVXDICP">
        <mxGraphModel dx="1420" dy="949" grid="1" gridSize="10" guides="1" tooltips="1" connect="1" arrows="1" fold="1" page="1" pageScale="1" pageWidth="827" pageHeight="1169" math="0" shadow="0">
            <root>
                <mxCell id="0"/>
                <mxCell id="1" parent="0"/>
                <mxCell id="KzoBcJex83Y40fJerIMA-1" value="Data Flow Diagram" style="text;html=1;align=center;verticalAlign=middle;whiteSpace=wrap;rounded=0;fontSize=26;fontStyle=1;shadow=1;" parent="1" vertex="1">
                    <mxGeometry x="40" y="40" width="250" height="60" as="geometry"/>
                </mxCell>
                <mxCell id="KzoBcJex83Y40fJerIMA-2" value="" style="rounded=0;whiteSpace=wrap;html=1;dashed=1;fillColor=none;fontColor=#ffffff;strokeColor=#2D7600;shadow=1;" parent="1" vertex="1">
                    <mxGeometry x="80" y="150" width="160" height="480" as="geometry"/>
                </mxCell>
                <mxCell id="KzoBcJex83Y40fJerIMA-3" value="SOURCES" style="rounded=1;whiteSpace=wrap;html=1;shadow=1;" parent="1" vertex="1">
                    <mxGeometry x="100" y="120" width="120" height="60" as="geometry"/>
                </mxCell>
                <mxCell id="KzoBcJex83Y40fJerIMA-10" value="" style="rounded=1;whiteSpace=wrap;html=1;fillColor=none;fontColor=#ffffff;strokeColor=#6F0000;glass=0;shadow=1;gradientColor=default;" parent="1" vertex="1">
                    <mxGeometry x="290" y="190" width="230" height="440" as="geometry"/>
                </mxCell>
                <mxCell id="KzoBcJex83Y40fJerIMA-8" value="BRONZE" style="rounded=1;whiteSpace=wrap;html=1;fillColor=#FF6666;fontColor=#ffffff;strokeColor=#6F0000;fontStyle=1;shadow=1;" parent="1" vertex="1">
                    <mxGeometry x="290" y="120" width="230" height="60" as="geometry"/>
                </mxCell>
                <mxCell id="10" style="edgeStyle=none;html=1;entryX=0;entryY=0.5;entryDx=0;entryDy=0;flowAnimation=1;shadow=1;" edge="1" parent="1" source="KzoBcJex83Y40fJerIMA-16" target="3">
                    <mxGeometry relative="1" as="geometry"/>
                </mxCell>
                <mxCell id="11" style="edgeStyle=none;html=1;entryX=0;entryY=0.5;entryDx=0;entryDy=0;flowAnimation=1;shadow=1;" edge="1" parent="1" source="KzoBcJex83Y40fJerIMA-16" target="6">
                    <mxGeometry relative="1" as="geometry"/>
                </mxCell>
                <mxCell id="12" style="edgeStyle=none;html=1;entryX=0;entryY=0.5;entryDx=0;entryDy=0;flowAnimation=1;shadow=1;" edge="1" parent="1" source="KzoBcJex83Y40fJerIMA-16" target="5">
                    <mxGeometry relative="1" as="geometry"/>
                </mxCell>
                <mxCell id="KzoBcJex83Y40fJerIMA-16" value="CRM" style="image;aspect=fixed;html=1;points=[];align=center;fontSize=12;image=img/lib/azure2/general/Folder_Blank.svg;shadow=1;" parent="1" vertex="1">
                    <mxGeometry x="131.73000000000002" y="308.06" width="44.5" height="36.12" as="geometry"/>
                </mxCell>
                <mxCell id="KzoBcJex83Y40fJerIMA-18" value="" style="image;aspect=fixed;html=1;points=[];align=center;fontSize=12;image=img/lib/azure2/general/File.svg;shadow=1;" parent="1" vertex="1">
                    <mxGeometry x="164.5" y="300" width="16.23" height="20" as="geometry"/>
                </mxCell>
                <mxCell id="13" style="edgeStyle=none;html=1;entryX=0;entryY=0.5;entryDx=0;entryDy=0;flowAnimation=1;shadow=1;" edge="1" parent="1" source="KzoBcJex83Y40fJerIMA-19" target="8">
                    <mxGeometry relative="1" as="geometry"/>
                </mxCell>
                <mxCell id="14" style="edgeStyle=none;html=1;entryX=0;entryY=0.5;entryDx=0;entryDy=0;flowAnimation=1;shadow=1;" edge="1" parent="1" source="KzoBcJex83Y40fJerIMA-19" target="7">
                    <mxGeometry relative="1" as="geometry"/>
                </mxCell>
                <mxCell id="15" style="edgeStyle=none;html=1;entryX=0;entryY=0.5;entryDx=0;entryDy=0;flowAnimation=1;shadow=1;" edge="1" parent="1" source="KzoBcJex83Y40fJerIMA-19" target="9">
                    <mxGeometry relative="1" as="geometry"/>
                </mxCell>
                <mxCell id="KzoBcJex83Y40fJerIMA-19" value="ERP" style="image;aspect=fixed;html=1;points=[];align=center;fontSize=12;image=img/lib/azure2/general/Folder_Blank.svg;shadow=1;" parent="1" vertex="1">
                    <mxGeometry x="131.73000000000002" y="468.05999999999995" width="44.5" height="36.12" as="geometry"/>
                </mxCell>
                <mxCell id="KzoBcJex83Y40fJerIMA-20" value="" style="image;aspect=fixed;html=1;points=[];align=center;fontSize=12;image=img/lib/azure2/general/File.svg;shadow=1;" parent="1" vertex="1">
                    <mxGeometry x="164.5" y="460" width="16.23" height="20" as="geometry"/>
                </mxCell>
                <mxCell id="3" value="crm_sales_details" style="rounded=1;whiteSpace=wrap;html=1;fillColor=#FF6666;fontColor=#ffffff;strokeColor=#6F0000;fontStyle=1;shadow=1;" vertex="1" parent="1">
                    <mxGeometry x="310" y="255" width="190" height="30" as="geometry"/>
                </mxCell>
                <mxCell id="5" value="crm_prd_info" style="rounded=1;whiteSpace=wrap;html=1;fillColor=#FF6666;fontColor=#ffffff;strokeColor=#6F0000;fontStyle=1;shadow=1;" vertex="1" parent="1">
                    <mxGeometry x="310" y="365" width="190" height="30" as="geometry"/>
                </mxCell>
                <mxCell id="6" value="crm_cust_info" style="rounded=1;whiteSpace=wrap;html=1;fillColor=#FF6666;fontColor=#ffffff;strokeColor=#6F0000;fontStyle=1;shadow=1;" vertex="1" parent="1">
                    <mxGeometry x="310" y="311.12" width="190" height="30" as="geometry"/>
                </mxCell>
                <mxCell id="7" value="erp_loc_a101" style="rounded=1;whiteSpace=wrap;html=1;fillColor=#FF6666;fontColor=#ffffff;strokeColor=#6F0000;fontStyle=1;shadow=1;" vertex="1" parent="1">
                    <mxGeometry x="310" y="471.12" width="190" height="30" as="geometry"/>
                </mxCell>
                <mxCell id="8" value="erp_cust_az12" style="rounded=1;whiteSpace=wrap;html=1;fillColor=#FF6666;fontColor=#ffffff;strokeColor=#6F0000;fontStyle=1;shadow=1;" vertex="1" parent="1">
                    <mxGeometry x="310" y="415" width="190" height="30" as="geometry"/>
                </mxCell>
                <mxCell id="9" value="erp_px_cat_g1v2" style="rounded=1;whiteSpace=wrap;html=1;fillColor=#FF6666;fontColor=#ffffff;strokeColor=#6F0000;fontStyle=1;shadow=1;" vertex="1" parent="1">
                    <mxGeometry x="310" y="525" width="190" height="30" as="geometry"/>
                </mxCell>
            </root>
        </mxGraphModel>
    </diagram>
</mxfile>